PathFileType	3	(X/Y/Z)	D:\Vicon Setup\UG\Test1\New Session\NewSession12.trc
DataRate	CameraRate	NumFrames	NumMarkers	Units	OrigDataRate	OrigDataStartFrame	OrigNumFrames
100.0	100.0	13	27	mm	100.0	649	351	
Frame#	Time	Sternum			LShoulder			RShoulder			LASIS			RASIS			RPSIS			LPSIS			RKneeLateral			RKneeMedial			RFibulaHead			RMidShank			RAnkleLateral			RAnkleMedial			RHeel			RMT5			RMT2			RToe			LKneeLateral			LKneeMedial			LFibulaHead			LMidShank			LAnkleLateral			LAnkleMedial			LHeel			LMT5			LMT2			LToe			
		X1	Y1	Z1	X2	Y2	Z2	X3	Y3	Z3	X4	Y4	Z4	X5	Y5	Z5	X6	Y6	Z6	X7	Y7	Z7	X8	Y8	Z8	X9	Y9	Z9	X10	Y10	Z10	X11	Y11	Z11	X12	Y12	Z12	X13	Y13	Z13	X14	Y14	Z14	X15	Y15	Z15	X16	Y16	Z16	X17	Y17	Z17	X18	Y18	Z18	X19	Y19	Z19	X20	Y20	Z20	X21	Y21	Z21	X22	Y22	Z22	X23	Y23	Z23	X24	Y24	Z24	X25	Y25	Z25	X26	Y26	Z26	X27	Y27	Z27	
649	6.48	-215.38892	1355.0486	-2746.5762	-401.13879	1418.1667	-2642.1758	-30.345196	1399.4008	-2673.6196	-324.99722	979.05011	-2693.8823	-64.223953	1003.2626	-2705.1765	-145.38112	1006.6575	-2518.0833	-274.6824	992.39948	-2514.8408	-63.399204	527.95856	-2568.2312	-195.98416	508.89749	-2584.2224	-63.665314	445.43204	-2550.3401	-154.39984	283.8255	-2538.8015	-103.57674	102.49718	-2446.0308	-184.96074	120.81113	-2496.8787	-160.49164	76.905655	-2374.696	-50.886047	30.861057	-2586.0959	-119.81757	59.618446	-2596.4358	-116.53316	42.589405	-2638.449	-371.88565	533.52856	-2822.6172	-248.6886	524.51044	-2855.1724	-377.09906	468.90076	-2822.1265	-303.15826	327.04105	-2894.6179	-350.91116	107.49454	-2877.2007	-276.19531	141.54434	-2922.4124	-280.77783	60.806156	-2831.3579	-412.24039	80.454109	-3011.5488	-351.62634	115.25057	-3031.2747			
650	6.49	-216.71626	1352.563	-2761.0166	-402.21481	1415.7552	-2656.448	-31.652033	1397.4899	-2688.3169	-326.43164	976.82703	-2708.3481	-65.719177	1001.3858	-2719.1763	-146.36256	1004.5391	-2532.4502	-275.59012	989.94873	-2529.1597	-64.025879	528.17218	-2575.0498	-196.28061	508.78204	-2591.5581	-64.195175	445.81625	-2556.032	-154.68692	284.17538	-2542.6077	-103.87969	104.02232	-2447.1985	-185.27357	121.75961	-2498.4717	-160.84158	79.278702	-2375.7375	-50.842419	30.747076	-2586.1428	-119.84304	59.287746	-2596.9321	-116.33939	42.219101	-2638.584	-370.53159	528.54144	-2832.4734	-246.78795	519.55286	-2865.5176	-375.87659	464.14658	-2834.752	-303.83841	326.5336	-2916.5405	-353.60269	105.90617	-2914.2043	-279.01862	142.83127	-2956.3826	-284.99911	56.071712	-2870.4797	-414.51447	88.110847	-3050.6218	-353.6734	124.07271	-3066.8508			
651	6.5	-218.10376	1350.1295	-2775.4995	-403.41489	1413.3893	-2670.7346	-33.024052	1395.579	-2703.0725	-327.98636	974.52313	-2723.1023	-67.308205	999.56433	-2733.2141	-147.57231	1002.3492	-2546.8906	-276.75031	987.35559	-2543.7234	-64.591324	528.32782	-2582.7595	-196.66147	508.41827	-2599.4968	-64.709572	446.15994	-2562.4316	-154.90604	284.5192	-2546.8901	-104.13264	105.72456	-2448.5835	-185.62344	122.54233	-2499.9775	-161.08855	81.980209	-2376.8491	-50.797684	30.577345	-2586.2036	-119.85535	58.956318	-2597.5146	-116.31833	41.912071	-2638.4973	-369.39108	523.63153	-2842.1304	-244.23692	514.45703	-2875.6646	-374.57019	459.74414	-2847.2642	-304.24359	326.27914	-2936.9595	-356.93771	106.22753	-2948.0896	-281.73648	145.08362	-2987.6885	-288.58615	53.171806	-2907.2883	-417.44476	96.833824	-3085.7893	-356.30579	133.32906	-3099.4185			
652	6.51	-219.57581	1347.8101	-2790.106	-404.48322	1411.0457	-2685.1313	-34.543018	1393.8014	-2717.8162	-329.59381	972.09747	-2738.093	-68.957253	997.48016	-2747.2126	-149.118	1000.1511	-2561.4287	-278.22418	984.82288	-2558.5168	-65.170891	528.26801	-2591.3108	-196.50787	508.0806	-2609.9731	-65.153763	446.51321	-2569.6667	-155.12605	284.87012	-2551.5935	-104.30642	107.68449	-2450.0618	-185.88017	123.61829	-2501.7751	-161.34344	84.883102	-2378.3748	-50.704815	30.418598	-2586.2581	-119.80269	58.635757	-2598.1206	-116.07861	42.076031	-2638.8442	-368.73074	518.99402	-2851.8003	-241.49863	508.99219	-2884.8113	-373.36194	456.18134	-2859.7825	-304.45007	326.5524	-2956.2422	-359.98901	107.70603	-2978.8997	-284.28519	147.89279	-3016.2893	-291.9783	51.941147	-2940.8484	-420.20413	105.0063	-3117.5769	-359.12271	142.27141	-3128.7578			
653	6.52	-221.20134	1345.6895	-2804.7656	-406.06677	1408.9071	-2699.5435	-36.120201	1392.0776	-2732.5913	-331.23834	969.64508	-2753.2734	-70.680344	995.54327	-2761.1111	-150.9727	998.04865	-2575.9919	-280.02774	982.29358	-2573.4897	-65.727257	527.99414	-2600.7319	-196.47118	507.52765	-2620.1763	-65.608788	446.64914	-2577.8425	-155.34146	285.21017	-2556.8633	-104.36317	109.89315	-2451.8472	-186.01253	124.91433	-2503.8201	-161.29433	88.495728	-2379.6128	-50.581764	30.292545	-2586.3235	-119.73945	58.364582	-2598.8445	-115.93482	41.921314	-2638.9607	-368.22147	514.5788	-2861.217	-238.64082	503.5932	-2893.2856	-372.34668	453.58182	-2872.5068	-304.79663	326.9874	-2974.4131	-362.81693	109.71816	-3006.4434	-286.9025	150.28465	-3041.8806	-295.28113	51.725807	-2970.5977	-422.81583	112.94655	-3145.2212	-361.56467	150.16048	-3154.9487			
654	6.53	-222.87596	1343.7858	-2819.5793	-407.61923	1406.8951	-2714.0449	-37.895897	1390.5752	-2747.3013	-332.72952	967.19348	-2768.6035	-72.322067	993.6427	-2774.8025	-153.06386	996.12958	-2590.5632	-282.1449	979.91504	-2588.6101	-66.325539	527.58325	-2611.2314	-196.74202	506.66577	-2630.9565	-66.020912	446.69412	-2586.8582	-155.45712	285.58142	-2562.5779	-104.37682	112.42636	-2453.8718	-186.11128	126.43336	-2506.1494	-161.28389	92.594238	-2381.4729	-50.513821	30.151161	-2586.3306	-119.6759	58.058807	-2599.6221	-115.76804	41.781517	-2639.0854	-367.54904	510.84256	-2871.3521	-236.37148	498.65518	-2901.8357	-371.73068	451.60129	-2885.3926	-305.33212	327.30478	-2991.5378	-365.20871	112.05038	-3030.4014	-288.40619	152.44275	-3064.6143	-298.03732	51.691261	-2996.3789	-424.6694	119.41966	-3169.1924	-363.19409	156.20175	-3178.0427			
655	6.54	-224.7296	1342.1621	-2834.5137	-409.17886	1404.9817	-2728.6562	-39.669773	1389.1472	-2762.1418	-334.04529	964.8761	-2783.981	-73.871071	991.66895	-2788.4368	-155.3222	994.40533	-2605.2507	-284.36203	977.83588	-2603.8899	-66.829277	527.1142	-2622.5798	-196.8905	505.67645	-2642.7288	-66.308243	446.68863	-2596.9663	-155.25327	286.14801	-2568.814	-104.44369	115.24166	-2456.207	-186.18604	128.22882	-2508.8542	-161.26558	97.253105	-2383.6624	-50.380554	29.985275	-2586.4954	-119.62064	57.747627	-2600.5686	-115.59248	41.654011	-2639.1821	-367.8302	508.44824	-2883.6575	-235.53555	494.83374	-2911.3384	-371.79355	449.63391	-2898.7512	-306.03369	327.05118	-3007.5547	-365.78699	112.71449	-3051.1787	-289.01233	153.22127	-3084.3257	-299.05905	51.21349	-3018.1553	-425.44031	123.64668	-3189.5107	-363.77795	159.50183	-3197.9121			
656	6.55	-226.67294	1340.774	-2849.6257	-411.25671	1403.266	-2743.386	-42.001888	1387.9193	-2776.9016	-335.33243	962.77527	-2799.4551	-75.437477	989.30115	-2802.2131	-157.54849	992.90607	-2620.2402	-286.51651	976.31293	-2618.7581	-67.178665	526.58716	-2634.9624	-196.8398	504.4971	-2655.5984	-66.466187	446.55664	-2607.9456	-155.22334	286.9097	-2575.5754	-104.41303	118.30457	-2458.7788	-186.11632	130.21078	-2511.999	-161.20833	102.40604	-2386.2661	-50.275803	29.77561	-2586.6995	-119.52028	57.389202	-2601.5088	-115.42481	41.549675	-2639.2622	-368.84161	507.00336	-2898.6309	-236.08661	492.79636	-2922.3069	-372.53049	447.54373	-2912.9919	-306.76456	325.81265	-3022.6265	-365.15674	110.93085	-3067.6736	-289.22147	152.4576	-3100.5217	-298.35031	49.852676	-3035.2019	-424.74988	123.6688	-3205.9993	-363.90509	159.30704	-3213.991			
657	6.56	-228.81123	1339.4879	-2864.8164	-413.32773	1401.6974	-2758.23	-43.933945	1386.7261	-2792.0081	-336.49908	960.85278	-2814.9065	-76.971115	986.63538	-2815.9619	-159.78952	991.56714	-2635.4082	-288.72934	975.20538	-2633.3555	-67.44899	525.78619	-2648.3438	-196.71065	503.10577	-2669.2725	-66.46579	446.35983	-2619.9089	-155.56705	287.78186	-2583.0935	-104.17402	121.69781	-2461.8015	-185.90065	132.45628	-2515.4612	-160.96719	108.03284	-2389.3049	-50.10796	29.475708	-2586.9561	-119.39436	57.040577	-2602.6033	-115.2914	41.473873	-2639.2847	-369.82224	505.68677	-2914.8064	-236.60442	492.79883	-2935.4387	-373.5311	445.71002	-2928.0137	-307.2352	323.49918	-3036.6038	-365.5722	108.21126	-3079.8081	-289.18958	150.19942	-3113.0789	-297.1265	47.570099	-3047.1914	-423.48642	118.33752	-3218.9399	-363.70389	155.42166	-3226.5571			
658	6.57	-231.13725	1338.2356	-2879.7339	-415.81915	1400.4689	-2773.2666	-46.166496	1385.8124	-2807.1975	-337.97534	959.42023	-2830.5776	-78.770363	984.93805	-2830.5203	-162.0208	990.33307	-2650.9941	-291.08337	973.88605	-2649.4761	-67.654984	524.71033	-2662.6941	-196.54559	501.50204	-2683.7332	-66.3647	445.95358	-2632.6174	-155.29405	288.43069	-2591.3623	-103.73204	125.67896	-2465.2927	-185.26791	135.06439	-2519.4917	-160.56122	114.30378	-2392.8198	-49.845882	29.098503	-2587.2251	-119.12287	56.6409	-2603.7405	-115.21509	41.420372	-2639.2139	-370.76175	504.61234	-2931.3455	-236.99034	493.57565	-2951.2795	-374.51007	444.41888	-2943.6238	-307.33902	320.27408	-3049.3552	-364.3942	103.32757	-3088.873	-288.3952	146.1992	-3122.1189	-296.22205	44.461205	-3054.2979	-421.96082	109.77687	-3228.8796	-362.19754	148.50998	-3236.0593			
659	6.58	-233.58447	1337.2023	-2895.1189	-418.03937	1399.2356	-2788.3027	-48.903564	1385.0051	-2822.3684	-339.57742	958.4292	-2846.5552	-80.583435	982.6853	-2845.4314	-164.13974	989.18323	-2666.929	-293.10983	973.22009	-2665.2449	-67.730499	523.43933	-2677.9351	-196.28302	499.62164	-2699	-66.324699	445.3844	-2646.0808	-154.91095	289.08643	-2600.3779	-103.20241	129.95702	-2469.3582	-184.80621	137.80821	-2523.9866	-160.18666	121.20378	-2397.092	-49.566513	28.706802	-2587.5078	-118.8399	56.227703	-2605.1104	-115.16749	41.470665	-2639.1348	-371.96323	504.05103	-2947.604	-238.26996	494.021	-2968.9707	-375.62582	443.29388	-2959.2903	-306.98239	316.34448	-3060.7961	-363.4346	99.142433	-3094.5312	-287.27151	140.37811	-3128.1528	-296.71289	45.361141	-3056.717	-419.31375	100.11501	-3235.8755	-359.08887	139.31323	-3243.2825			
660	6.59	-236.20982	1336.2653	-2910.231	-420.39648	1398.2141	-2803.3884	-51.50362	1384.3621	-2837.5854	-341.32501	957.83032	-2862.8982	-82.46035	980.61334	-2860.7097	-166.16928	988.05334	-2683.1179	-295.17444	972.66272	-2681.4001	-67.740349	522.07056	-2694.0024	-195.99094	497.70383	-2715.0696	-65.855446	444.56161	-2660.7239	-154.41701	289.88397	-2610.2212	-102.7639	134.6209	-2474.1367	-183.97488	140.87434	-2529.3823	-160.15511	128.79527	-2402.2681	-49.424316	28.39097	-2587.8928	-118.6701	55.748959	-2606.5903	-115.14637	41.566761	-2639.0747	-373.30328	503.75934	-2964.5803	-239.98004	494.14868	-2986.8987	-376.9267	442.03342	-2974.791	-306.35553	312.21063	-3071.3464	-362.73227	94.975693	-3098.25	-285.91357	134.59676	-3132.6311	-297.00836	46.367134	-3059.3262	-415.98956	91.204773	-3240.9712	-355.896	129.78806	-3249.4673			
661	6.6	-238.85382	1335.5449	-2925.4646	-423.03271	1397.4486	-2818.4946	-54.273361	1383.9506	-2852.8555	-343.16293	957.65222	-2879.4744	-84.433922	978.68713	-2876.321	-168.19688	986.9491	-2699.6182	-297.27054	972.26514	-2697.7839	-67.592148	520.53107	-2711.0247	-195.54488	495.71906	-2731.9731	-65.211632	443.69052	-2676.2903	-153.83269	290.79889	-2621.0771	-102.49817	139.72037	-2479.7688	-183.47911	144.00259	-2535.52	-160.31714	137.11072	-2408.4482	-49.468678	28.355534	-2588.4514	-118.59689	55.327179	-2608.2087	-114.9021	41.735844	-2638.9241	-375.05814	503.40027	-2982.2581	-242.06306	493.71561	-3004.3691	-378.29367	440.65973	-2990.124	-306.01718	308.58618	-3082.0154	-362.01004	91.51915	-3102.8252	-284.84219	129.23892	-3138.0112	-296.57724	48.028236	-3063.1003	-413.46677	83.636238	-3245.6936	-354.0246	120.83961	-3255.6624			
